<svg xmlns="http://www.w3.org/2000/svg" data-name="Layer 1" viewBox="0 0 512 512"><rect width="359" height="452" x="76.5" y="52.5" fill="#fff" rx="30"/><rect width="251" height="60" x="139.5" y="112.5" fill="#c8c5cc" rx="15"/><path fill="#c8c5cc" d="M390.5,127.5v30a15.00543,15.00543,0,0,1-15,15h-221a14.72761,14.72761,0,0,1-4.33008-.64A15.00443,15.00443,0,0,1,139.5,157.5v-30a15.00543,15.00543,0,0,1,15-15h221A15.00543,15.00543,0,0,1,390.5,127.5Z"/><path fill="#c8c5cc" d="M390.5,127.5v30a15.00543,15.00543,0,0,1-15,15h-221a14.72761,14.72761,0,0,1-4.33008-.64A15.00443,15.00443,0,0,1,139.5,157.5v-30a15.00543,15.00543,0,0,1,15-15h221A15.00543,15.00543,0,0,1,390.5,127.5Z"/><path fill="#e1e1e3" d="M209.39,97.89A110.42168,110.42168,0,0,1,76.5,205.97V82.5a29.998,29.998,0,0,1,30-30h93.12A109.673,109.673,0,0,1,209.39,97.89Z"/><path fill="#aeadb3" d="M208.41992,112.5a109.928,109.928,0,0,1-28.13989,60H154.5a14.72761,14.72761,0,0,1-4.33008-.64A15.00443,15.00443,0,0,1,139.5,157.5v-30a15.00543,15.00543,0,0,1,15-15Z"/><circle cx="99" cy="97.891" r="90.391" fill="#e4222e"/><path fill="#c0232c" d="M98.99976,7.5a90.96834,90.96834,0,0,0-15,1.24609,90.39961,90.39961,0,0,1,0,178.29A90.3944,90.3944,0,1,0,98.99976,7.5Z"/><path fill="#3c3b41" d="M270.31445,435H121.5a7.5,7.5,0,0,0,0,15H270.31445a7.5,7.5,0,1,0,0-15ZM107.6084,138.7998a8.60865,8.60865,0,1,0-8.60864,8.60877A8.60868,8.60868,0,0,0,107.6084,138.7998ZM270.31445,390H121.5a7.5,7.5,0,0,0,0,15H270.31445a7.5,7.5,0,1,0,0-15ZM99,111.91309a7.50006,7.50006,0,0,0,7.5-7.5V56.93457a7.5,7.5,0,0,0-15,0v47.47852A7.50006,7.50006,0,0,0,99,111.91309ZM270.31445,345H121.5a7.5,7.5,0,0,0,0,15H270.31445a7.5,7.5,0,1,0,0-15ZM405.5,45H181.33789A97.87858,97.87858,0,1,0,69,191.07373V474.5A37.54227,37.54227,0,0,0,106.5,512h299A37.54227,37.54227,0,0,0,443,474.5V82.5A37.54227,37.54227,0,0,0,405.5,45ZM16.10889,97.89111A82.89111,82.89111,0,1,1,99,180.78223,82.9847,82.9847,0,0,1,16.10889,97.89111ZM194.37305,120H375.5a7.5082,7.5082,0,0,1,7.5,7.5v30a7.5082,7.5082,0,0,1-7.5,7.5H170.19849A97.78785,97.78785,0,0,0,194.37305,120ZM428,474.5A22.52586,22.52586,0,0,1,405.5,497h-299A22.52554,22.52554,0,0,1,84,474.5V194.63354a97.85077,97.85077,0,0,0,68.4043-14.74267c.69775.06518,1.39673.10913,2.0957.10913h221A22.52554,22.52554,0,0,0,398,157.5v-30A22.52554,22.52554,0,0,0,375.5,105H196.63135q.254-3.52258.25976-7.10889A97.35363,97.35363,0,0,0,189.2583,60H405.5A22.52554,22.52554,0,0,1,428,82.5ZM270.31445,300H121.5a7.5,7.5,0,0,0,0,15H270.31445a7.5,7.5,0,1,0,0-15Zm120-90H121.5a7.5,7.5,0,0,0,0,15H390.31445a7.5,7.5,0,1,0,0-15Zm0,45H121.5a7.5,7.5,0,0,0,0,15H390.31445a7.5,7.5,0,1,0,0-15Zm6.93262,53.21875a7.49943,7.49943,0,0,0-7.5-7.5H317.17188a7.5,7.5,0,0,0,0,15h13.19531a32.138,32.138,0,0,1,31.19287,24.58691H317.17188a7.5,7.5,0,0,0,0,15h44.38818a32.13766,32.13766,0,0,1-31.19287,24.58594H317.17188a7.50057,7.50057,0,0,0-5.42383,12.68067L364.53027,447.834a7.50048,7.50048,0,1,0,10.84766-10.36132L334.53223,394.709a47.17791,47.17791,0,0,0,42.31323-39.40332h12.90161a7.5,7.5,0,0,0,0-15H376.84985a46.962,46.962,0,0,0-12.06518-24.58691h24.9624A7.49943,7.49943,0,0,0,397.24707,308.21875Z"/></svg>